<svg width="40" height="40" viewBox="0 0 40 40" fill="none" xmlns="http://www.w3.org/2000/svg">
<g id="Stockholm-icons / General / Search">
<path id="Path 2" opacity="0.7" d="M23.8212 27.8452C23.1703 27.1943 23.1703 26.139 23.8212 25.4882C24.472 24.8373 25.5273 24.8373 26.1782 25.4882L32.8449 32.1548C33.4957 32.8057 33.4957 33.861 32.8449 34.5118C32.194 35.1627 31.1387 35.1627 30.4878 34.5118L23.8212 27.8452Z" fill="#690000"/>
<path id="Path" d="M18.334 6.66675C24.7772 6.66692 30 11.8905 30 18.3337C29.9998 24.7768 24.7771 29.9996 18.334 29.9998C11.8908 29.9998 6.66717 24.7769 6.66699 18.3337C6.66699 11.8904 11.8907 6.66675 18.334 6.66675ZM18.334 9.99976C13.7316 9.99976 10 13.7314 10 18.3337C10.0002 22.936 13.7317 26.6667 18.334 26.6667C22.9361 26.6666 26.6668 22.9359 26.667 18.3337C26.667 13.7315 22.9362 9.99993 18.334 9.99976Z" fill="#690000"/>
</g>
</svg>
